<svg width="207" height="185" viewBox="0 0 207 185" fill="none" xmlns="http://www.w3.org/2000/svg">
<g clip-path="url(#clip0_320_807)">
<path d="M2.25772 72.2165C7.69435 47.4315 26.0241 15.9744 45.6433 16.3593C64.0805 16.7229 65.1979 44.8439 102.846 69.2012C125.345 83.7643 136.948 81.4547 141.418 93.088C148.853 112.399 125.71 141.738 101.772 155.66C95.7118 159.188 65.069 177.023 36.1453 163.85C2.45112 148.539 -4.3178 102.326 2.25772 72.2165Z" fill="#FB4B1E"/>
<path d="M79.3357 31.7992C102.092 10.2861 142.62 -9.19545 162.325 4.64052C180.848 17.6211 162.411 47.0038 183.792 97.5361C196.578 127.753 209.965 133.334 206.441 148.218C200.596 172.96 156.63 186.967 122.592 184.786C113.975 184.23 70.3964 181.429 50.1112 148.24C26.4952 109.576 51.7228 57.9315 79.3572 31.7992" fill="#121A8F"/>
<path d="M56.8159 70.7838H47.4254L45.6203 74.8255H39.5391L50.7346 51.8796H53.5067L64.7237 74.8255H58.6425L56.8159 70.7838ZM49.4883 66.0364H54.753L52.1099 60.3053L49.4883 66.0364Z" fill="white"/>
<path d="M85.1167 70.0781V74.8255H67.9688V51.8796H73.7492V70.0781H85.0952H85.1167Z" fill="white"/>
<path d="M105.982 70.0781V74.8255H88.8555V51.8796H94.6359V70.0781H105.982Z" fill="white"/>
<path d="M123.71 51.8796H117.887V74.8255H123.71V51.8796Z" fill="white"/>
<path d="M150.27 51.8796V74.8255H147.498L134.734 62.2513V74.8255H128.953V51.8796H131.704L144.468 64.4539V51.8796H150.291H150.27Z" fill="white"/>
<path d="M71.5137 86.2235C75.0378 89.474 77.0148 94.0717 76.9718 98.8619C77.0363 103.631 75.0378 108.228 71.5137 111.458C64.1216 118.429 52.5177 118.429 45.1042 111.458C41.5371 108.25 39.5386 103.652 39.6031 98.8619C39.5386 94.0503 41.5585 89.4526 45.1042 86.2235C52.4963 79.252 64.1001 79.252 71.5137 86.2235ZM65.1531 105.769C68.9351 101.92 68.9351 95.7825 65.1531 91.9332C61.457 88.1695 55.3757 88.1053 51.5937 91.7835C51.5508 91.8263 51.5078 91.8691 51.4433 91.9332C47.6613 95.7825 47.6613 101.92 51.4433 105.769C55.1394 109.533 61.2206 109.597 65.0026 105.919C65.0456 105.876 65.0886 105.833 65.1531 105.769Z" fill="white"/>
<path d="M115.93 81.412V116.226H111.718L92.3572 97.1512V116.205H83.5684V81.3906H87.7372L107.098 100.444V81.3906H115.93V81.412Z" fill="white"/>
<path d="M151.41 108.827V116.226H123.668V81.4119H150.357V88.811H132.199V95.7183H147.284V102.925H132.199V108.806H151.41V108.827Z" fill="white"/>
<path d="M52.1313 136.007C50.842 137.462 48.9725 138.296 46.9955 138.274H39.9688V122.984H46.4798C50.7346 122.963 54.1942 126.384 54.2157 130.618V130.661C54.2372 132.65 53.4851 134.575 52.1098 136.029M46.6517 134.831C47.6832 134.831 48.6502 134.382 49.3163 133.591C50.0254 132.778 50.4122 131.73 50.4122 130.661C50.4337 129.571 50.0254 128.501 49.2733 127.689C48.5642 126.897 47.5542 126.47 46.4798 126.47H43.7078V134.831H46.6517Z" fill="white"/>
<path d="M68.7641 135.024V138.274H56.5801V122.963H68.3129V126.213H60.3191V129.25H66.9591V132.415H60.3191V135.002H68.7641V135.024Z" fill="white"/>
<path d="M82.473 135.109V138.274H71.041V122.963H74.909V135.088H82.473V135.109Z" fill="white"/>
<path d="M88.3621 122.984H84.4727V138.296H88.3621V122.984Z" fill="white"/>
<path d="M101.985 122.984H106.218L99.0408 138.296H97.2788L90.123 122.984H94.3133L98.1598 131.773L102.006 122.984H101.985Z" fill="white"/>
<path d="M120.079 135.024V138.274H107.895V122.963H119.627V126.213H111.634V129.25H118.274V132.415H111.634V135.002H120.079V135.024Z" fill="white"/>
<path d="M128.867 134.746C128.759 134.746 128.652 134.767 128.544 134.767H126.202V138.274H122.334V122.963H129.404C131.144 122.813 132.863 123.39 134.153 124.567C135.163 125.7 135.678 127.154 135.635 128.672C135.85 130.875 134.69 132.992 132.692 133.997L136.108 138.274H131.488L128.845 134.746H128.867ZM126.202 131.645H128.372C129.253 131.709 130.113 131.431 130.801 130.875C131.316 130.383 131.617 129.678 131.596 128.972C131.617 128.266 131.381 127.56 130.929 127.026C130.371 126.47 129.576 126.17 128.781 126.235H126.223V131.645H126.202Z" fill="white"/>
<path d="M151.495 122.984L145.65 133.121V138.296H141.761V133.121L135.938 122.984H140.343L143.716 128.993L147.069 122.984H151.474H151.495Z" fill="white"/>
</g>
<defs>
<clipPath id="clip0_320_807">
<rect width="207" height="185" fill="white"/>
</clipPath>
</defs>
</svg>
