<svg width="40" height="40" viewBox="0 0 40 40" fill="none" xmlns="http://www.w3.org/2000/svg">
<path d="M38.6582 0C39.4016 0 40 0.598368 40 1.3418V38.6582C40 39.4016 39.4016 40 38.6582 40H1.3418C0.598368 40 0 39.4016 0 38.6582V1.3418C0 0.598368 0.598368 0 1.3418 0H38.6582ZM1.9311 7.13509H38.0598V1.9311H1.9311V7.13509ZM1.9311 38.0598H38.0598V9.06618H1.9311V38.0598ZM14.4243 34.0435C13.6809 34.0435 13.0825 33.4452 13.0825 32.7017V22.738H9.66455C8.95739 22.738 8.32276 22.1034 8.32276 21.3962V15.5938C8.32276 14.8504 8.92112 14.252 9.66455 14.252H16.0925L16.9084 13.4361C17.1351 13.2094 17.4252 13.0644 17.7969 13.0644H22.1849C22.5204 13.0644 22.8559 13.2094 23.0734 13.4361L23.8894 14.252H30.3173C31.0607 14.252 31.6591 14.8504 31.6591 15.5938V21.3962C31.6591 22.1034 31.0245 22.738 30.2811 22.738H26.8994V32.7017C26.8994 33.4452 26.301 34.0435 25.5576 34.0435H14.4243ZM24.9773 22.1487C24.9773 21.4053 25.5757 20.8069 26.3191 20.8069H29.7371V16.2013H24.796L20.7072 20.2901C20.5621 20.4805 20.2629 20.5893 20 20.5893C19.7008 20.5893 19.447 20.4805 19.2566 20.2901L15.204 16.2013H10.2629V20.8069H13.6809C14.4243 20.8069 15.0227 21.4053 15.0227 22.1487V32.1124H24.9864V22.1487H24.9773ZM22.602 15.7208L21.8948 15.0136H18.1052L17.398 15.7208L20 18.2865L22.602 15.7208Z" fill="#F59B00"/>
</svg>
