<svg width="29" height="41" viewBox="0 0 29 41" fill="none" xmlns="http://www.w3.org/2000/svg">
<path d="M3.48019 40.2881C3.06032 40.6689 2.56582 40.9754 1.98734 40.9754C0.914365 40.9754 0 40.0652 0 38.9972C0 38.8486 0 38.6907 0.037321 38.5421L5.04767 17.9708C3.40554 16.4477 2.44453 14.2745 2.44453 11.9527C2.44453 7.34622 6.15797 3.65918 10.7858 3.65918C11.2803 3.65918 11.8961 3.69633 12.3533 3.80778C13.8461 1.48596 16.4492 0 19.3603 0C23.9881 0 27.7015 3.69633 27.7015 8.30281C27.7015 9.40799 27.3936 10.8197 26.8991 11.8041C28.1587 13.3644 28.9238 15.3797 28.9238 17.4415C28.9238 22.3544 24.9118 26.348 19.9761 26.348C19.2856 26.348 18.6419 26.2737 18.0261 26.1529L3.48019 40.2881ZM15.9547 25.4007C13.7341 24.2955 12.204 22.4287 11.4762 20.2184C11.243 20.2555 11.019 20.2555 10.7858 20.2555C9.36758 20.2555 7.99603 19.9119 6.76444 19.2246L1.98734 38.9136L15.9547 25.3914V25.4007ZM11.019 17.4415C11.019 13.8194 13.2396 10.6246 16.5239 9.21296C15.4509 6.96544 13.193 5.63737 10.7858 5.63737C7.30559 5.63737 4.43187 8.49784 4.43187 11.962C4.43187 15.4261 7.34291 18.3981 11.047 18.2866C11.0097 18.0544 11.0097 17.7944 11.0097 17.4508L11.019 17.4415ZM19.9667 24.3698C23.7922 24.3698 26.9271 21.2492 26.9271 17.4415C26.9271 13.6337 23.7922 10.5132 19.9667 10.5132C16.1413 10.5132 13.0064 13.6337 13.0064 17.4415C13.0064 21.2492 16.1413 24.3698 19.9667 24.3698ZM25.7049 8.30281C25.7049 4.83866 22.8311 1.97819 19.351 1.97819C17.4009 1.97819 15.5629 2.85119 14.3406 4.45788C16.2533 5.33089 17.6342 6.89115 18.4366 8.68359C18.8938 8.57214 19.4722 8.53499 19.9667 8.53499C21.9541 8.53499 23.8668 9.22225 25.3596 10.3646C25.5929 9.67732 25.7049 8.99007 25.7049 8.3121V8.30281Z" fill="#F59B00"/>
</svg>
