<svg width="41" height="42" viewBox="0 0 41 42" fill="none" xmlns="http://www.w3.org/2000/svg">
<path fill-rule="evenodd" clip-rule="evenodd" d="M5.33333 2.5C4.44928 2.5 3.60143 2.85119 2.97631 3.47631C2.35119 4.10143 2 4.94928 2 5.83333V9.16667H39V5.83333C39 4.94928 38.6488 4.10143 38.0237 3.47631C37.3986 2.85119 36.5507 2.5 35.6667 2.5H5.33333ZM39 11.1667V36.1667C39 37.0507 38.6488 37.8986 38.0237 38.5237C37.3986 39.1488 36.5507 39.5 35.6667 39.5H30.25C29.6977 39.5 29.25 39.9477 29.25 40.5C29.25 41.0523 29.6977 41.5 30.25 41.5H35.6667C37.0812 41.5 38.4377 40.9381 39.4379 39.9379C40.4381 38.9377 41 37.5812 41 36.1667V5.83333C41 4.41885 40.4381 3.06229 39.4379 2.0621C38.4377 1.0619 37.0812 0.5 35.6667 0.5H5.33333C3.91885 0.5 2.56229 1.0619 1.5621 2.0621C0.561903 3.06229 0 4.41885 0 5.83333V36.1667C0 37.5812 0.561903 38.9377 1.5621 39.9379C2.56229 40.9381 3.91885 41.5 5.33333 41.5H10.75C11.3023 41.5 11.75 41.0523 11.75 40.5C11.75 39.9477 11.3023 39.5 10.75 39.5H5.33333C4.44928 39.5 3.60143 39.1488 2.97631 38.5237C2.35119 37.8986 2 37.0507 2 36.1667V11.1667H39ZM19.5 39.5V29.6667H21.5V39.5H24.8333C25.3856 39.5 25.8333 39.9477 25.8333 40.5C25.8333 41.0523 25.3856 41.5 24.8333 41.5H16.1667C15.6144 41.5 15.1667 41.0523 15.1667 40.5C15.1667 39.9477 15.6144 39.5 16.1667 39.5H19.5Z" fill="#F59B00"/>
<path fill-rule="evenodd" clip-rule="evenodd" d="M13 16.6666C13 16.1143 13.4477 15.6666 14 15.6666H27C27.5523 15.6666 28 16.1143 28 16.6666V22.4451C28 26.8846 24.7388 30.6666 20.5 30.6666C16.261 30.6666 13 26.8823 13 22.4451V16.6666ZM15 17.6666V22.4451C15 25.9813 17.5587 28.6666 20.5 28.6666C23.4415 28.6666 26 25.9833 26 22.4451V17.6666H15Z" fill="#F59B00"/>
</svg>
