<svg width="37" height="35" viewBox="0 0 37 35" fill="none" xmlns="http://www.w3.org/2000/svg">
<path d="M32.7667 31.6667L21.45 4.68333C20.8333 3.28333 19.8833 2.15 18.6 1.28333C17.3333 0.433333 15.9167 0 14.35 0C12.95 0 11.6667 0.35 10.5 1.05C9.33333 1.75 8.4 2.7 7.71667 3.86667C7.03333 5.03333 6.66667 6.33333 6.66667 7.73333L6.71667 13.3333H1.71667V22.4167C2.75 21.95 3.85 21.7167 5 21.7167V16.7167H13.3333C14.2833 16.7167 15.0667 17.05 15.7167 17.7C16.3667 18.3333 16.6667 19.1167 16.6667 20V31.7167H13.1833C12.9278 32.9195 12.3909 34.0447 11.6167 35H20V20C20 18.8 19.6667 17.7 19.0833 16.6667C18.5 15.6333 17.6833 14.85 16.6667 14.2667C15.7 13.6667 14.5833 13.3333 13.3333 13.3333H10V7.73333C10 6.53333 10.4167 5.51667 11.2667 4.65C12.1167 3.78333 13.15 3.33333 14.35 3.33333C15.2333 3.33333 16.05 3.6 16.7667 4.1C17.4833 4.6 18.0167 5.23333 18.3333 6.01667L29.1 31.6667L25 31.7167V35H36.6667V31.7167L32.7667 31.6667ZM5 28.3333C5.91667 28.3333 6.66667 29.0833 6.66667 30C6.66667 30.9167 5.91667 31.6667 5 31.6667C4.08333 31.6667 3.33333 30.9167 3.33333 30C3.33333 29.0833 4.08333 28.3333 5 28.3333ZM5 25C2.23333 25 0 27.2333 0 30C0 32.7667 2.23333 35 5 35C7.76667 35 10 32.7667 10 30C10 27.2333 7.76667 25 5 25Z" fill="#F59B00"/>
</svg>
