<svg width="40" height="40" viewBox="0 0 40 40" fill="none" xmlns="http://www.w3.org/2000/svg">
<path d="M38.6582 0C39.4016 0 40 0.598368 40 1.3418V38.6582C40 39.4016 39.4016 40 38.6582 40H1.3418C0.598368 40 0 39.4016 0 38.6582V1.3418C0 0.598368 0.598368 0 1.3418 0H38.6582ZM1.9311 7.13509H38.0598V1.9311H1.9311V7.13509ZM1.9311 38.0598H38.0598V9.06618H1.9311V38.0598ZM25.7208 14.4968L26.8722 19.9275C28.6219 20.5984 30.1451 22.3481 30.1451 24.7235C30.1451 27.5159 28.0598 29.5195 25.6482 29.8549C25.0952 31.3418 23.2729 33.7171 20 33.7171C16.7271 33.7171 14.9048 31.3418 14.3518 29.8549C11.9311 29.5195 9.85494 27.5159 9.85494 24.7235C9.85494 22.3481 11.3781 20.5984 13.1278 19.9275L14.2792 14.4968C14.388 14.0163 14.7597 13.6809 15.2493 13.6809C15.884 13.6809 16.3282 14.1976 16.1831 14.9048L14.8776 20.7797C14.8051 21.1514 14.5784 21.4143 14.0617 21.5956C12.5748 22.0762 11.7951 23.3817 11.7951 24.7144C11.7951 26.6092 13.3545 27.951 15.068 27.951C15.5848 27.951 16.0018 28.3228 16.0743 28.767C16.301 29.9184 17.6337 31.777 20.0181 31.777C22.4025 31.777 23.7353 29.9184 23.9619 28.767C24.0345 28.3228 24.4424 27.951 24.9683 27.951C26.718 27.951 28.2412 26.6092 28.2412 24.7144C28.2412 23.3726 27.4615 22.0762 25.9746 21.5956C25.4578 21.4053 25.2312 21.1514 25.1587 20.7797L23.8531 14.9048C23.7081 14.1976 24.1523 13.6809 24.7869 13.6809C25.2675 13.6809 25.6392 14.0163 25.757 14.4968H25.7208ZM19.0299 14.6419C19.0299 14.0798 19.4379 13.6718 20 13.6718C20.5621 13.6718 20.9701 14.0798 20.9701 14.6419V20.5893C20.9701 21.1514 20.5621 21.5594 20 21.5594C19.4379 21.5594 19.0299 21.1514 19.0299 20.5893V14.6419Z" fill="#F59B00"/>
</svg>
