<svg width="117" height="116" viewBox="0 0 117 116" fill="none" xmlns="http://www.w3.org/2000/svg">
<circle cx="58.6882" cy="57.7715" r="57.7429" fill="#F59B00" fill-opacity="0.4"/>
<path d="M54.1571 89.7143C48.1315 89.7143 42.7824 88.6501 38.11 86.5216C33.4631 84.3674 29.7992 81.4055 27.1183 77.6357C24.4629 73.866 23.1097 69.5321 23.0586 64.6339H43.7399C43.8165 67.3523 44.8633 69.5192 46.8804 71.1348C48.923 72.7505 51.3486 73.5583 54.1571 73.5583C56.3274 73.5583 58.2423 73.0967 59.902 72.1734C61.5616 71.2246 62.8637 69.8911 63.8084 68.1729C64.7531 66.4547 65.2127 64.4544 65.1872 62.1721C65.2127 59.8641 64.7531 57.8638 63.8084 56.1712C62.8637 54.4531 61.5616 53.1324 59.902 52.2092C58.2423 51.2603 56.3274 50.7859 54.1571 50.7859C51.9103 50.7859 49.8294 51.3372 47.9145 52.44C46.0251 53.517 44.6335 55.0172 43.7399 56.9406L25.0501 53.2478L28.114 9.85718H80.813V26.9364H45.5782L44.0463 44.3235H44.5059C45.7314 41.9385 47.8506 39.9639 50.8635 38.3996C53.8763 36.8096 57.3742 36.0146 61.3573 36.0146C66.0297 36.0146 70.1915 37.1045 73.8427 39.2843C77.5194 41.4641 80.4173 44.4773 82.5365 48.324C84.6812 52.1451 85.7408 56.5559 85.7153 61.5566C85.7408 67.0445 84.4387 71.917 81.8088 76.174C79.2045 80.4053 75.5406 83.7263 70.8171 86.1369C66.0936 88.5219 60.5403 89.7143 54.1571 89.7143Z" fill="#F59B00"/>
<path d="M42.8157 83.2895L42.8187 83.2909C47.5666 85.4538 52.9883 86.5286 59.0732 86.5286C65.5186 86.5286 71.1521 85.3244 75.9585 82.8976L75.9604 82.8966C80.7596 80.4473 84.4946 77.0656 87.1502 72.7511C89.8336 68.4074 91.1569 63.4421 91.1313 57.8708C91.1568 52.7978 90.0812 48.3009 87.8895 44.3954C85.7287 40.4738 82.7691 37.3952 79.0143 35.1689C75.2783 32.9387 71.0265 31.829 66.2733 31.829C62.2234 31.829 58.6433 32.6376 55.5476 34.2709C52.9022 35.6447 50.9007 37.344 49.5751 39.3798L50.9521 23.7508H85.7291H86.2291V23.2508V6.17151V5.67151H85.7291H33.03H32.5641L32.5313 6.13629L29.4674 49.5269L29.4363 49.9671L29.8692 50.0526L48.559 53.7454L48.944 53.8215L49.1094 53.4656C49.9581 51.6389 51.2764 50.2157 53.0781 49.1887L53.08 49.1876C54.9177 48.1293 56.9123 47.6002 59.0732 47.6002C61.1683 47.6002 62.9955 48.0575 64.5698 48.9576L64.5698 48.9576L64.5749 48.9604C66.1496 49.8364 67.3853 51.0879 68.2863 52.7265L68.2878 52.7293C69.1826 54.3323 69.628 56.2434 69.6032 58.4809H69.6031L69.6032 58.492C69.6279 60.7025 69.1831 62.6152 68.2863 64.2463C67.3852 65.8853 66.1486 67.1505 64.5721 68.0524C62.9975 68.9276 61.1694 69.3726 59.0732 69.3726C56.3683 69.3726 54.0548 68.5975 52.1079 67.058C50.2128 65.5397 49.2284 63.514 49.1557 60.9342L49.142 60.4483H48.6559H27.9746H27.4694L27.4746 60.9535C27.5267 65.9462 28.9081 70.3801 31.6255 74.238L31.6268 74.2398C34.3633 78.0878 38.0986 81.1029 42.8157 83.2895Z" stroke="black"/>
</svg>
