<svg width="123" height="23" viewBox="0 0 123 23" fill="none" xmlns="http://www.w3.org/2000/svg">
<path d="M109.507 15.3659V16.9567C109.507 18.2938 110.714 19.5219 112.609 19.5219C115.327 19.5219 116.418 17.4675 116.641 16.607C119.579 16.607 121.89 16.6053 122.721 16.6053C121.815 19.4227 118.079 22.7687 111.208 22.7687C102.253 22.7687 99.4459 17.918 99.4459 14.2109C99.4459 10.2566 102.689 5.55076 111.193 5.55076C118.546 5.55076 122.941 9.81253 122.941 14.2126C122.941 14.9478 122.879 15.3659 122.879 15.3659H109.507ZM109.507 12.6917H112.913V10.5104C112.913 9.85157 112.387 8.8089 111.198 8.8089C110.095 8.8089 109.507 9.80765 109.507 10.5006V12.6917ZM84.5557 18.5931H82.1353V22.0058H98.4911V18.5931H96.0381V1.24018H82.1353V4.65448H84.5557V18.5931ZM67.7054 15.3659V16.9567C67.7054 18.2938 68.9156 19.5219 70.8107 19.5219C73.5271 19.5219 74.6202 17.4675 74.8415 16.607C77.7808 16.607 80.0922 16.6053 80.9234 16.6053C80.0174 19.4227 76.2794 22.7687 69.4101 22.7687C60.4539 22.7687 57.648 17.918 57.648 14.2109C57.648 10.2566 60.8882 5.55076 69.3971 5.55076C76.7463 5.55076 81.1447 9.81253 81.1447 14.2126C81.1447 14.9478 81.0812 15.3659 81.0812 15.3659H67.7054ZM67.7054 12.6917H71.1132V10.5104C71.1132 9.85157 70.5878 8.8089 69.3988 8.8089C68.2975 8.8089 67.7054 9.80765 67.7054 10.5006V12.6917ZM52.2785 3.38246L50.6957 0.369934L45.6987 2.94652L47.2814 5.98832L52.2785 3.38246ZM54.2646 6.39335H40.8286V9.80765H43.2783V18.5931H40.8286V22.0058H56.7159V18.5931H54.2646V6.39335ZM26.3971 1.24018H38.6245V4.65611H36.1732V18.5931H38.6245V22.0058H22.7323V18.5931H25.1853V9.5604L16.1558 22.0058L7.09225 9.5604V18.5931H9.54521V22.0058H0.759766V18.5931H3.18182V4.65611H0.759766V1.24018H14.6333L20.5299 9.34243L26.3971 1.24018Z" fill="white"/>
</svg>
